<?xml version="1.0" standalone="no"?>
<!DOCTYPE svg PUBLIC "-//W3C//DTD SVG 20010904//EN"
 "http://www.w3.org/TR/2001/REC-SVG-20010904/DTD/svg10.dtd">
<svg version="1.0" xmlns="http://www.w3.org/2000/svg"
 width="1024.000000pt" height="1024.000000pt" viewBox="0 0 1024.000000 1024.000000"
 preserveAspectRatio="xMidYMid meet">

<g transform="translate(0.000000,1024.000000) scale(0.100000,-0.100000)"
fill="#000000" stroke="none">
<path d="M1345 8360 c-416 -31 -808 -366 -941 -805 l-27 -90 -9 -1180 c-4
-654 -4 -1705 0 -2360 l9 -1180 27 -89 c102 -336 348 -612 658 -735 40 -16
109 -40 153 -53 l80 -23 2225 -3 c1322 -1 2284 1 2370 7 158 10 249 35 395
109 266 133 470 375 570 675 37 112 44 221 46 712 1 242 4 518 8 613 l6 173
100 -69 c762 -525 2424 -1673 2635 -1821 l275 -191 3 1531 c1 842 1 2217 0
3056 l-3 1525 -275 -189 c-436 -300 -2220 -1538 -2492 -1729 -135 -96 -249
-174 -252 -174 -3 0 -6 278 -6 618 0 339 -5 661 -10 714 -20 211 -129 439
-292 613 -187 201 -437 326 -687 346 -132 10 -4427 9 -4566 -1z"/>
</g>
</svg>
