<?xml version="1.0" encoding="UTF-8" standalone="no"?>
<!-- Created with Inkscape (http://www.inkscape.org/) -->

<svg
   width="135.46664mm"
   height="88.900002mm"
   viewBox="0 0 135.46664 88.900002"
   version="1.1"
   id="svg5"
   inkscape:version="1.1.1 (c3084ef, 2021-09-22)"
   sodipodi:docname="video.svg"
   xmlns:inkscape="http://www.inkscape.org/namespaces/inkscape"
   xmlns:sodipodi="http://sodipodi.sourceforge.net/DTD/sodipodi-0.dtd"
   xmlns="http://www.w3.org/2000/svg"
   xmlns:svg="http://www.w3.org/2000/svg">
  <sodipodi:namedview
     id="namedview7"
     pagecolor="#ffffff"
     bordercolor="#666666"
     borderopacity="1.0"
     inkscape:pageshadow="2"
     inkscape:pageopacity="0.0"
     inkscape:pagecheckerboard="0"
     inkscape:document-units="mm"
     showgrid="false"
     inkscape:zoom="0.5095679"
     inkscape:cx="333.61599"
     inkscape:cy="470.98728"
     inkscape:window-width="1312"
     inkscape:window-height="794"
     inkscape:window-x="0"
     inkscape:window-y="25"
     inkscape:window-maximized="0"
     inkscape:current-layer="layer1" />
  <defs
     id="defs2" />
  <g
     inkscape:label="Layer 1"
     inkscape:groupmode="layer"
     id="layer1">
    <path
       style="fill:#999999;stroke-width:0.264583"
       d="m 8.995833,88.635421 c 0,-0.14552 -0.357187,-0.26458 -0.79375,-0.26458 -0.436562,0 -0.79375,-0.11906 -0.79375,-0.26459 0,-0.14552 -0.238125,-0.26458 -0.529166,-0.26458 -0.291042,0 -0.529167,-0.11906 -0.529167,-0.26458 0,-0.14552 -0.180515,-0.26459 -0.401143,-0.26459 -0.522737,0 -4.361357,-3.83861 -4.361357,-4.36135 0,-0.22063 -0.119062,-0.40114 -0.264583,-0.40114 -0.145521,0 -0.264584,-0.23813 -0.264584,-0.52917 0,-0.29104 -0.119062,-0.52917 -0.264583,-0.52917 -0.145521,0 -0.264583,-0.35718 -0.264583,-0.79375 0,-0.43656 -0.119063,-0.79375 -0.264584,-0.79375 C 0.089511,79.904171 0,67.909731 0,44.450011 0,20.990281 0.08951,8.99584 0.264583,8.99584 c 0.145521,0 0.264584,-0.35719 0.264584,-0.79375 0,-0.43657 0.119062,-0.79375 0.264583,-0.79375 0.145521,0 0.264583,-0.23813 0.264583,-0.52917 C 1.058333,6.58813 1.177396,6.35 1.322917,6.35 1.468438,6.35 1.5875,6.16949 1.5875,5.94886 1.5875,5.42612 5.42612,1.5875 5.948857,1.5875 6.169485,1.5875 6.35,1.46844 6.35,1.32292 6.35,1.1774 6.588125,1.05834 6.879167,1.05834 c 0.291041,0 0.529166,-0.11907 0.529166,-0.26459 0,-0.14552 0.357188,-0.26458 0.79375,-0.26458 0.436563,0 0.79375,-0.11906 0.79375,-0.26458 C 8.995833,0.08928 23.547916,0 52.122907,0 c 28.574996,0 43.127076,0.0893 43.127076,0.26459 0,0.14552 0.35719,0.26458 0.79375,0.26458 0.43657,0 0.79375,0.11906 0.79375,0.26458 0,0.14552 0.23813,0.26459 0.52917,0.26459 0.29104,0 0.52917,0.11906 0.52917,0.26458 0,0.14552 0.21184,0.26458 0.47075,0.26458 0.25892,0 0.64239,0.23813 0.85216,0.52917 0.20978,0.29104 0.53769,0.52917 0.72869,0.52917 0.451257,0 2.181727,1.73047 2.181727,2.18172 0,0.19101 0.23813,0.51892 0.52917,0.72869 0.29104,0.20977 0.52916,0.59324 0.52916,0.85216 0,0.25892 0.11907,0.47076 0.26459,0.47076 0.14552,0 0.26458,0.35719 0.26458,0.79375 0,0.43656 0.11906,0.79375 0.26458,0.79375 0.14552,0 0.26459,0.47625 0.26459,1.05833 0,0.58209 0.11906,1.05834 0.26458,1.05834 0.16986,0 0.26458,2.55764 0.26458,7.143751 0,4.58611 0.0947,7.14375 0.26459,7.14375 0.14552,0 0.26458,-0.11906 0.26458,-0.26458 0,-0.14552 0.23813,-0.26459 0.52917,-0.26459 0.29104,0 0.52916,-0.11906 0.52916,-0.26458 0,-0.14552 0.21185,-0.26458 0.47076,-0.26458 0.25892,0 0.64239,-0.23813 0.85216,-0.52917 0.20977,-0.29104 0.59324,-0.52917 0.85216,-0.52917 0.25892,0 0.47076,-0.11906 0.47076,-0.26458 0,-0.14552 0.23812,-0.26458 0.52916,-0.26458 0.29105,0 0.52917,-0.11907 0.52917,-0.26459 0,-0.14552 0.21184,-0.26458 0.47076,-0.26458 0.25891,0 0.64238,-0.23813 0.85216,-0.52917 0.20977,-0.29104 0.59324,-0.52916 0.85216,-0.52916 0.25891,0 0.47075,-0.11907 0.47075,-0.26459 0,-0.14552 0.23813,-0.26458 0.52917,-0.26458 0.29104,0 0.52917,-0.11906 0.52917,-0.26458 0,-0.14552 0.21184,-0.26459 0.47075,-0.26459 0.25892,0 0.64239,-0.23812 0.85216,-0.52916 0.20978,-0.29105 0.59325,-0.52917 0.85216,-0.52917 0.25892,0 0.47076,-0.11906 0.47076,-0.26458 0,-0.14552 0.21184,-0.26459 0.47076,-0.26459 0.25891,0 0.64238,-0.23812 0.85216,-0.52916 0.20977,-0.29105 0.59324,-0.52917 0.85216,-0.52917 0.25891,0 0.47075,-0.11906 0.47075,-0.26458 0,-0.14552 0.23813,-0.26459 0.52917,-0.26459 0.29104,0 0.52917,-0.11906 0.52917,-0.26458 0,-0.14552 0.21184,-0.26458 0.47075,-0.26458 0.25892,0 0.64239,-0.23813 0.85216,-0.52917 0.20978,-0.29104 0.59325,-0.52917 0.85216,-0.52917 0.25892,0 0.47076,-0.11906 0.47076,-0.26458 0,-0.145521 0.23813,-0.264581 0.52917,-0.264581 0.29104,0 0.52916,-0.11907 0.52916,-0.26459 0,-0.14552 0.21184,-0.26458 0.47076,-0.26458 0.25892,0 0.64239,-0.23813 0.85216,-0.52917 0.20977,-0.29104 0.59324,-0.52916 0.85216,-0.52916 0.25892,0 0.47076,-0.11907 0.47076,-0.26459 0,-0.14552 0.23812,-0.26458 0.52916,-0.26458 0.29104,0 0.52917,-0.11906 0.52917,-0.26458 0,-0.14552 0.21184,-0.26459 0.47076,-0.26459 0.25891,0 0.64238,-0.23812 0.85216,-0.52916 0.20977,-0.29105 0.59324,-0.52917 0.85216,-0.52917 0.25891,0 0.47075,-0.11907 0.47075,-0.26459 0,-0.14552 0.23813,-0.26458 0.52917,-0.26458 0.29104,0 0.52917,-0.11906 0.52917,-0.26458 0,-0.14553 0.23812,-0.26459 0.52916,-0.26459 0.29104,0 0.52917,-0.11906 0.52917,-0.26458 0,-0.55987 1.86504,-0.27568 2.52557,0.38485 l 0.64943,0.64943 v 33.361561 33.36155 l -0.64943,0.64943 c -0.53337,0.53337 -0.91164,0.64943 -2.11667,0.64943 -0.80698,0 -1.46723,-0.11906 -1.46723,-0.26458 0,-0.14552 -0.21184,-0.26458 -0.47076,-0.26458 -0.25892,0 -0.64239,-0.23813 -0.85216,-0.52917 -0.20977,-0.29104 -0.59324,-0.52917 -0.85216,-0.52917 -0.25892,0 -0.47076,-0.11906 -0.47076,-0.26458 0,-0.14552 -0.21184,-0.26458 -0.47075,-0.26458 -0.25892,0 -0.64239,-0.23813 -0.85216,-0.52917 -0.20978,-0.29104 -0.56696,-0.52917 -0.79375,-0.52917 -0.22679,0 -0.58398,-0.23812 -0.79375,-0.52916 -0.20978,-0.29105 -0.59325,-0.52917 -0.85216,-0.52917 -0.25892,0 -0.47076,-0.11906 -0.47076,-0.26458 0,-0.14552 -0.21184,-0.26459 -0.47076,-0.26459 -0.25891,0 -0.64238,-0.23812 -0.85216,-0.52916 -0.20977,-0.29105 -0.59324,-0.52917 -0.85216,-0.52917 -0.25891,0 -0.47075,-0.11906 -0.47075,-0.26458 0,-0.14552 -0.21184,-0.26459 -0.47076,-0.26459 -0.25892,0 -0.64239,-0.23812 -0.85216,-0.52916 -0.20977,-0.29105 -0.59324,-0.52917 -0.85216,-0.52917 -0.25892,0 -0.47076,-0.11906 -0.47076,-0.26458 0,-0.14552 -0.21184,-0.26459 -0.47075,-0.26459 -0.25892,0 -0.64239,-0.23812 -0.85216,-0.52916 -0.20978,-0.29105 -0.59325,-0.52917 -0.85216,-0.52917 -0.25892,0 -0.47076,-0.11906 -0.47076,-0.26458 0,-0.14552 -0.21184,-0.26459 -0.47076,-0.26459 -0.25891,0 -0.64238,-0.23812 -0.85216,-0.52916 -0.20977,-0.29105 -0.59324,-0.52917 -0.85216,-0.52917 -0.25891,0 -0.47075,-0.11906 -0.47075,-0.26458 0,-0.14552 -0.21184,-0.26459 -0.47076,-0.26459 -0.25892,0 -0.64239,-0.23812 -0.85216,-0.52916 -0.20977,-0.29105 -0.59324,-0.52917 -0.85216,-0.52917 -0.25891,0 -0.47076,-0.11906 -0.47076,-0.26458 0,-0.14552 -0.21184,-0.26459 -0.47075,-0.26459 -0.25892,0 -0.64239,-0.23812 -0.85216,-0.52916 -0.20978,-0.29105 -0.56696,-0.52917 -0.79375,-0.52917 -0.22679,0 -0.58398,-0.23813 -0.79375,-0.52917 -0.20978,-0.29104 -0.59325,-0.52916 -0.85216,-0.52916 -0.25892,0 -0.47076,-0.11907 -0.47076,-0.26459 0,-0.14552 -0.21184,-0.26458 -0.47076,-0.26458 -0.25891,0 -0.64238,-0.23813 -0.85216,-0.52917 -0.20977,-0.29104 -0.47418,-0.52916 -0.58757,-0.52916 -0.1134,0 -0.20618,3.69093 -0.20618,8.20208 0,5.29167 -0.0939,8.20208 -0.26458,8.20208 -0.14552,0 -0.26458,0.47625 -0.26458,1.05834 0,0.58208 -0.11907,1.05833 -0.26459,1.05833 -0.14552,0 -0.26458,0.35719 -0.26458,0.79375 0,0.43656 -0.11906,0.79375 -0.26458,0.79375 -0.14552,0 -0.26459,0.21184 -0.26459,0.47076 0,0.25891 -0.23812,0.64238 -0.52916,0.85216 -0.29104,0.20977 -0.52917,0.53768 -0.52917,0.72868 0,0.45126 -1.73047,2.18173 -2.181727,2.18173 -0.191,0 -0.51891,0.23813 -0.72869,0.52917 -0.20977,0.29104 -0.59324,0.52916 -0.85216,0.52916 -0.25891,0 -0.47075,0.11907 -0.47075,0.26459 0,0.14552 -0.23813,0.26458 -0.52917,0.26458 -0.29104,0 -0.52917,0.11906 -0.52917,0.26458 0,0.14553 -0.35718,0.26459 -0.79375,0.26459 -0.43656,0 -0.79375,0.11906 -0.79375,0.26458 0,0.17531 -14.55208,0.26458 -43.127076,0.26458 -28.574991,0 -43.127074,-0.0893 -43.127074,-0.26458 z"
       id="path603" />
    <path
       style="fill:#000000;stroke-width:0.264583"
       id="path59"
       d="" />
    <path
       style="fill:#000000;stroke-width:0.264583"
       id="path21"
       d="" />
  </g>
</svg>
